instagram

<svg xmlns="http://www.w3.org/2000/svg" width="16" height="16" fill="currentColor" class="bi bi-instagram" viewBox="0 0 16 16">
  <path d="M8 0C5.829 0 5.556.01 4.703.048 3.85.088 3.269.222 2.76.42a3.9 3.9 0 0 0-1.417.923A3.9 3.9 0 0 0 .42 2.76C.222 3.268.087 3.85.048 4.7.01 5.555 0 5.827 0 8.001c0 2.172.01 2.444.048 3.297.04.852.174 1.433.372 1.942.205.526.478.972.923 1.417.444.445.89.719 1.416.923.51.198 1.09.333 1.942.372C5.555 15.99 5.827 16 8 16s2.444-.01 3.298-.048c.851-.04 1.434-.174 1.943-.372a3.9 3.9 0 0 0 1.416-.923c.445-.445.718-.891.923-1.417.197-.509.332-1.09.372-1.942C15.99 10.445 16 10.173 16 8s-.01-2.445-.048-3.299c-.04-.851-.175-1.433-.372-1.941a3.9 3.9 0 0 0-.923-1.417A3.9 3.9 0 0 0 13.24.42c-.51-.198-1.092-.333-1.943-.372C10.443.01 10.172 0 7.998 0zm-.717 1.442h.718c2.136 0 2.389.007 3.232.046.78.035 1.204.166 1.486.275.373.145.64.319.92.599s.453.546.598.92c.11.281.24.705.275 1.485.039.843.047 1.096.047 3.231s-.008 2.389-.047 3.232c-.035.78-.166 1.203-.275 1.485a2.5 2.5 0 0 1-.599.919c-.28.28-.546.453-.92.598-.28.11-.704.24-1.485.276-.843.038-1.096.047-3.232.047s-2.39-.009-3.233-.047c-.78-.036-1.203-.166-1.485-.276a2.5 2.5 0 0 1-.92-.598 2.5 2.5 0 0 1-.6-.92c-.109-.281-.24-.705-.275-1.485-.038-.843-.046-1.096-.046-3.233s.008-2.388.046-3.231c.036-.78.166-1.204.276-1.486.145-.373.319-.64.599-.92s.546-.453.92-.598c.282-.11.705-.24 1.485-.276.738-.034 1.024-.044 2.515-.045zm4.988 1.328a.96.96 0 1 0 0 1.92.96.96 0 0 0 0-1.92m-4.27 1.122a4.109 4.109 0 1 0 0 8.217 4.109 4.109 0 0 0 0-8.217m0 1.441a2.667 2.667 0 1 1 0 5.334 2.667 2.667 0 0 1 0-5.334"/>
</svg>

github

<svg aria-hidden="true" class="octicon octicon-mark-github" height="24" version="1.1" viewBox="0 0 16 16" width="24"><path fill-rule="evenodd" d="M8 0C3.58 0 0 3.58 0 8c0 3.54 2.29 6.53 5.47 7.59.4.07.55-.17.55-.38 0-.19-.01-.82-.01-1.49-2.01.37-2.53-.49-2.69-.94-.09-.23-.48-.94-.82-1.13-.28-.15-.68-.52-.01-.53.63-.01 1.08.58 1.23.82.72 1.21 1.87.87 2.33.66.07-.52.28-.87.51-1.07-1.78-.2-3.64-.89-3.64-3.95 0-.87.31-1.59.82-2.15-.08-.2-.36-1.02.08-2.12 0 0 .67-.21 2.2.82.64-.18 1.32-.27 2-.27.68 0 1.36.09 2 .27 1.53-1.04 2.2-.82 2.2-.82.44 1.1.16 1.92.08 2.12.51.56.82 1.27.82 2.15 0 3.07-1.87 3.75-3.65 3.95.29.25.54.73.54 1.48 0 1.07-.01 1.93-.01 2.2 0 .21.15.46.55.38A8.013 8.013 0 0 0 16 8c0-4.42-3.58-8-8-8z"></path>
</svg>
</a>

css 

<svg class="w-6 h-6 text-gray-800 dark:text-white" aria-hidden="true" xmlns="http://www.w3.org/2000/svg" width="24" height="24" fill="currentColor" viewBox="0 0 24 24">
  <path d="m3 2 1.578 17.834L12 22l7.468-2.165L21 2H3Zm13.3 14.722-4.293 1.204H12l-4.297-1.204-.297-3.167h2.108l.15 1.526 2.335.639 2.34-.64.245-3.05h-7.27l-.187-2.006h7.64l.174-2.006H6.924l-.176-2.006h10.506l-.954 10.71Z"/>
</svg>

javascript

<svg xmlns="http://www.w3.org/2000/svg" fill="none" height="16" viewBox="0 0 16 16" width="16"><g fill="#212121"><path d="m8.5 7.5c0-.82843.67157-1.5 1.5-1.5h1.5c.2761 0 .5.22386.5.5s-.2239.5-.5.5h-1.5c-.27614 0-.5.22386-.5.5v.5c0 .27614.22386.5.5.5h.5c.8284 0 1.5.67157 1.5 1.5v.5c0 .8284-.6716 1.5-1.5 1.5h-1.5c-.27614 0-.5-.2239-.5-.5s.22386-.5.5-.5h1.5c.2761 0 .5-.2239.5-.5v-.5c0-.27614-.2239-.5-.5-.5h-.5c-.82843 0-1.5-.67157-1.5-1.5z"/><path d="m8 6.5c0-.27614-.22386-.5-.5-.5s-.5.22386-.5.5v4c0 .2761-.22386.5-.5.5h-1c-.27614 0-.5.2239-.5.5s.22386.5.5.5h1c.82843 0 1.5-.6716 1.5-1.5z"/><path d="m2 4.5c0-1.38071 1.11929-2.5 2.5-2.5h7c1.3807 0 2.5 1.11929 2.5 2.5v7c0 1.3807-1.1193 2.5-2.5 2.5h-7c-1.38071 0-2.5-1.1193-2.5-2.5zm2.5-1.5c-.82843 0-1.5.67157-1.5 1.5v7c0 .8284.67157 1.5 1.5 1.5h7c.8284 0 1.5-.6716 1.5-1.5v-7c0-.82843-.6716-1.5-1.5-1.5z"/></g></svg>

node.js 

<svg xmlns="http://www.w3.org/2000/svg" width="2270" height="2500" viewBox="0 0 256 282" preserveAspectRatio="xMinYMin meet"><g fill="#8CC84B"><path d="M116.504 3.58c6.962-3.985 16.03-4.003 22.986 0 34.995 19.774 70.001 39.517 104.99 59.303 6.581 3.707 10.983 11.031 10.916 18.614v118.968c.049 7.897-4.788 15.396-11.731 19.019-34.88 19.665-69.742 39.354-104.616 59.019-7.106 4.063-16.356 3.75-23.24-.646-10.457-6.062-20.932-12.094-31.39-18.15-2.137-1.274-4.546-2.288-6.055-4.36 1.334-1.798 3.719-2.022 5.657-2.807 4.365-1.388 8.374-3.616 12.384-5.778 1.014-.694 2.252-.428 3.224.193 8.942 5.127 17.805 10.403 26.777 15.481 1.914 1.105 3.852-.362 5.488-1.274 34.228-19.345 68.498-38.617 102.72-57.968 1.268-.61 1.969-1.956 1.866-3.345.024-39.245.006-78.497.012-117.742.145-1.576-.767-3.025-2.192-3.67-34.759-19.575-69.5-39.18-104.253-58.76a3.621 3.621 0 0 0-4.094-.006C91.2 39.257 56.465 58.88 21.712 78.454c-1.42.646-2.373 2.071-2.204 3.653.006 39.245 0 78.497 0 117.748a3.329 3.329 0 0 0 1.89 3.303c9.274 5.259 18.56 10.481 27.84 15.722 5.228 2.814 11.647 4.486 17.407 2.33 5.083-1.823 8.646-7.01 8.549-12.407.048-39.016-.024-78.038.036-117.048-.127-1.732 1.516-3.163 3.2-3 4.456-.03 8.918-.06 13.374.012 1.86-.042 3.14 1.823 2.91 3.568-.018 39.263.048 78.527-.03 117.79.012 10.464-4.287 21.85-13.966 26.97-11.924 6.177-26.662 4.867-38.442-1.056-10.198-5.09-19.93-11.097-29.947-16.55C5.368 215.886.555 208.357.604 200.466V81.497c-.073-7.74 4.504-15.197 11.29-18.85C46.768 42.966 81.636 23.27 116.504 3.58z"/><path d="M146.928 85.99c15.21-.979 31.493-.58 45.18 6.913 10.597 5.742 16.472 17.793 16.659 29.566-.296 1.588-1.956 2.464-3.472 2.355-4.413-.006-8.827.06-13.24-.03-1.872.072-2.96-1.654-3.195-3.309-1.268-5.633-4.34-11.212-9.642-13.929-8.139-4.075-17.576-3.87-26.451-3.785-6.479.344-13.446.905-18.935 4.715-4.214 2.886-5.494 8.712-3.99 13.404 1.418 3.369 5.307 4.456 8.489 5.458 18.33 4.794 37.754 4.317 55.734 10.626 7.444 2.572 14.726 7.572 17.274 15.366 3.333 10.446 1.872 22.932-5.56 31.318-6.027 6.901-14.805 10.657-23.56 12.697-11.647 2.597-23.734 2.663-35.562 1.51-11.122-1.268-22.696-4.19-31.282-11.768-7.342-6.375-10.928-16.308-10.572-25.895.085-1.619 1.697-2.748 3.248-2.615 4.444-.036 8.888-.048 13.332.006 1.775-.127 3.091 1.407 3.182 3.08.82 5.367 2.837 11 7.517 14.182 9.032 5.827 20.365 5.428 30.707 5.591 8.568-.38 18.186-.495 25.178-6.158 3.689-3.23 4.782-8.634 3.785-13.283-1.08-3.925-5.186-5.754-8.712-6.95-18.095-5.724-37.736-3.647-55.656-10.12-7.275-2.571-14.31-7.432-17.105-14.906-3.9-10.578-2.113-23.662 6.098-31.765 8.006-8.06 19.563-11.164 30.551-12.275z"/></g></svg>

react.js 

<svg xmlns="http://www.w3.org/2000/svg" height="2500" viewBox="175.7 78 490.6 436.9" width="2194"><g fill="#61dafb"><path d="m666.3 296.5c0-32.5-40.7-63.3-103.1-82.4 14.4-63.6 8-114.2-20.2-130.4-6.5-3.8-14.1-5.6-22.4-5.6v22.3c4.6 0 8.3.9 11.4 2.6 13.6 7.8 19.5 37.5 14.9 75.7-1.1 9.4-2.9 19.3-5.1 29.4-19.6-4.8-41-8.5-63.5-10.9-13.5-18.5-27.5-35.3-41.6-50 32.6-30.3 63.2-46.9 84-46.9v-22.3c-27.5 0-63.5 19.6-99.9 53.6-36.4-33.8-72.4-53.2-99.9-53.2v22.3c20.7 0 51.4 16.5 84 46.6-14 14.7-28 31.4-41.3 49.9-22.6 2.4-44 6.1-63.6 11-2.3-10-4-19.7-5.2-29-4.7-38.2 1.1-67.9 14.6-75.8 3-1.8 6.9-2.6 11.5-2.6v-22.3c-8.4 0-16 1.8-22.6 5.6-28.1 16.2-34.4 66.7-19.9 130.1-62.2 19.2-102.7 49.9-102.7 82.3 0 32.5 40.7 63.3 103.1 82.4-14.4 63.6-8 114.2 20.2 130.4 6.5 3.8 14.1 5.6 22.5 5.6 27.5 0 63.5-19.6 99.9-53.6 36.4 33.8 72.4 53.2 99.9 53.2 8.4 0 16-1.8 22.6-5.6 28.1-16.2 34.4-66.7 19.9-130.1 62-19.1 102.5-49.9 102.5-82.3zm-130.2-66.7c-3.7 12.9-8.3 26.2-13.5 39.5-4.1-8-8.4-16-13.1-24-4.6-8-9.5-15.8-14.4-23.4 14.2 2.1 27.9 4.7 41 7.9zm-45.8 106.5c-7.8 13.5-15.8 26.3-24.1 38.2-14.9 1.3-30 2-45.2 2-15.1 0-30.2-.7-45-1.9-8.3-11.9-16.4-24.6-24.2-38-7.6-13.1-14.5-26.4-20.8-39.8 6.2-13.4 13.2-26.8 20.7-39.9 7.8-13.5 15.8-26.3 24.1-38.2 14.9-1.3 30-2 45.2-2 15.1 0 30.2.7 45 1.9 8.3 11.9 16.4 24.6 24.2 38 7.6 13.1 14.5 26.4 20.8 39.8-6.3 13.4-13.2 26.8-20.7 39.9zm32.3-13c5.4 13.4 10 26.8 13.8 39.8-13.1 3.2-26.9 5.9-41.2 8 4.9-7.7 9.8-15.6 14.4-23.7 4.6-8 8.9-16.1 13-24.1zm-101.4 106.7c-9.3-9.6-18.6-20.3-27.8-32 9 .4 18.2.7 27.5.7 9.4 0 18.7-.2 27.8-.7-9 11.7-18.3 22.4-27.5 32zm-74.4-58.9c-14.2-2.1-27.9-4.7-41-7.9 3.7-12.9 8.3-26.2 13.5-39.5 4.1 8 8.4 16 13.1 24s9.5 15.8 14.4 23.4zm73.9-208.1c9.3 9.6 18.6 20.3 27.8 32-9-.4-18.2-.7-27.5-.7-9.4 0-18.7.2-27.8.7 9-11.7 18.3-22.4 27.5-32zm-74 58.9c-4.9 7.7-9.8 15.6-14.4 23.7-4.6 8-8.9 16-13 24-5.4-13.4-10-26.8-13.8-39.8 13.1-3.1 26.9-5.8 41.2-7.9zm-90.5 125.2c-35.4-15.1-58.3-34.9-58.3-50.6s22.9-35.6 58.3-50.6c8.6-3.7 18-7 27.7-10.1 5.7 19.6 13.2 40 22.5 60.9-9.2 20.8-16.6 41.1-22.2 60.6-9.9-3.1-19.3-6.5-28-10.2zm53.8 142.9c-13.6-7.8-19.5-37.5-14.9-75.7 1.1-9.4 2.9-19.3 5.1-29.4 19.6 4.8 41 8.5 63.5 10.9 13.5 18.5 27.5 35.3 41.6 50-32.6 30.3-63.2 46.9-84 46.9-4.5-.1-8.3-1-11.3-2.7zm237.2-76.2c4.7 38.2-1.1 67.9-14.6 75.8-3 1.8-6.9 2.6-11.5 2.6-20.7 0-51.4-16.5-84-46.6 14-14.7 28-31.4 41.3-49.9 22.6-2.4 44-6.1 63.6-11 2.3 10.1 4.1 19.8 5.2 29.1zm38.5-66.7c-8.6 3.7-18 7-27.7 10.1-5.7-19.6-13.2-40-22.5-60.9 9.2-20.8 16.6-41.1 22.2-60.6 9.9 3.1 19.3 6.5 28.1 10.2 35.4 15.1 58.3 34.9 58.3 50.6-.1 15.7-23 35.6-58.4 50.6z"/><circle cx="420.9" cy="296.5" r="45.7"/></g></svg>

postgre sql

<svg xmlns="http://www.w3.org/2000/svg" width="2424" height="2500" viewBox="0 0 256 264" preserveAspectRatio="xMinYMin meet"><path d="M255.008 158.086c-1.535-4.649-5.556-7.887-10.756-8.664-2.452-.366-5.26-.21-8.583.475-5.792 1.195-10.089 1.65-13.225 1.738 11.837-19.985 21.462-42.775 27.003-64.228 8.96-34.689 4.172-50.492-1.423-57.64C233.217 10.847 211.614.683 185.552.372c-13.903-.17-26.108 2.575-32.475 4.549-5.928-1.046-12.302-1.63-18.99-1.738-12.537-.2-23.614 2.533-33.079 8.15-5.24-1.772-13.65-4.27-23.362-5.864-22.842-3.75-41.252-.828-54.718 8.685C6.622 25.672-.937 45.684.461 73.634c.444 8.874 5.408 35.874 13.224 61.48 4.492 14.718 9.282 26.94 14.237 36.33 7.027 13.315 14.546 21.156 22.987 23.972 4.731 1.576 13.327 2.68 22.368-4.85 1.146 1.388 2.675 2.767 4.704 4.048 2.577 1.625 5.728 2.953 8.875 3.74 11.341 2.835 21.964 2.126 31.027-1.848.056 1.612.099 3.152.135 4.482.06 2.157.12 4.272.199 6.25.537 13.374 1.447 23.773 4.143 31.049.148.4.347 1.01.557 1.657 1.345 4.118 3.594 11.012 9.316 16.411 5.925 5.593 13.092 7.308 19.656 7.308 3.292 0 6.433-.432 9.188-1.022 9.82-2.105 20.973-5.311 29.041-16.799 7.628-10.86 11.336-27.217 12.007-52.99.087-.729.167-1.425.244-2.088l.16-1.362 1.797.158.463.031c10.002.456 22.232-1.665 29.743-5.154 5.935-2.754 24.954-12.795 20.476-26.351"/><path d="M237.906 160.722c-29.74 6.135-31.785-3.934-31.785-3.934 31.4-46.593 44.527-105.736 33.2-120.211-30.904-39.485-84.399-20.811-85.292-20.327l-.287.052c-5.876-1.22-12.451-1.946-19.842-2.067-13.456-.22-23.664 3.528-31.41 9.402 0 0-95.43-39.314-90.991 49.444.944 18.882 27.064 142.873 58.218 105.422 11.387-13.695 22.39-25.274 22.39-25.274 5.464 3.63 12.006 5.482 18.864 4.817l.533-.452c-.166 1.7-.09 3.363.213 5.332-8.026 8.967-5.667 10.541-21.711 13.844-16.235 3.346-6.698 9.302-.471 10.86 7.549 1.887 25.013 4.561 36.813-11.958l-.47 1.885c3.144 2.519 5.352 16.383 4.982 28.952-.37 12.568-.617 21.197 1.86 27.937 2.479 6.74 4.948 21.905 26.04 17.386 17.623-3.777 26.756-13.564 28.027-29.89.901-11.606 2.942-9.89 3.07-20.267l1.637-4.912c1.887-15.733.3-20.809 11.157-18.448l2.64.232c7.99.363 18.45-1.286 24.589-4.139 13.218-6.134 21.058-16.377 8.024-13.686h.002" fill="#336791"/><path d="M108.076 81.525c-2.68-.373-5.107-.028-6.335.902-.69.523-.904 1.129-.962 1.546-.154 1.105.62 2.327 1.096 2.957 1.346 1.784 3.312 3.01 5.258 3.28.282.04.563.058.842.058 3.245 0 6.196-2.527 6.456-4.392.325-2.336-3.066-3.893-6.355-4.35M196.86 81.599c-.256-1.831-3.514-2.353-6.606-1.923-3.088.43-6.082 1.824-5.832 3.659.2 1.427 2.777 3.863 5.827 3.863.258 0 .518-.017.78-.054 2.036-.282 3.53-1.575 4.24-2.32 1.08-1.136 1.706-2.402 1.591-3.225" fill="#FFF"/><path d="M247.802 160.025c-1.134-3.429-4.784-4.532-10.848-3.28-18.005 3.716-24.453 1.142-26.57-.417 13.995-21.32 25.508-47.092 31.719-71.137 2.942-11.39 4.567-21.968 4.7-30.59.147-9.463-1.465-16.417-4.789-20.665-13.402-17.125-33.072-26.311-56.882-26.563-16.369-.184-30.199 4.005-32.88 5.183-5.646-1.404-11.801-2.266-18.502-2.376-12.288-.199-22.91 2.743-31.704 8.74-3.82-1.422-13.692-4.811-25.765-6.756-20.872-3.36-37.458-.814-49.294 7.571-14.123 10.006-20.643 27.892-19.38 53.16.425 8.501 5.269 34.653 12.913 59.698 10.062 32.964 21 51.625 32.508 55.464 1.347.449 2.9.763 4.613.763 4.198 0 9.345-1.892 14.7-8.33a529.832 529.832 0 0 1 20.261-22.926c4.524 2.428 9.494 3.784 14.577 3.92.01.133.023.266.035.398a117.66 117.66 0 0 0-2.57 3.175c-3.522 4.471-4.255 5.402-15.592 7.736-3.225.666-11.79 2.431-11.916 8.435-.136 6.56 10.125 9.315 11.294 9.607 4.074 1.02 7.999 1.523 11.742 1.523 9.103 0 17.114-2.992 23.516-8.781-.197 23.386.778 46.43 3.586 53.451 2.3 5.748 7.918 19.795 25.664 19.794 2.604 0 5.47-.303 8.623-.979 18.521-3.97 26.564-12.156 29.675-30.203 1.665-9.645 4.522-32.676 5.866-45.03 2.836.885 6.487 1.29 10.434 1.289 8.232 0 17.731-1.749 23.688-4.514 6.692-3.108 18.768-10.734 16.578-17.36zm-44.106-83.48c-.061 3.647-.563 6.958-1.095 10.414-.573 3.717-1.165 7.56-1.314 12.225-.147 4.54.42 9.26.968 13.825 1.108 9.22 2.245 18.712-2.156 28.078a36.508 36.508 0 0 1-1.95-4.009c-.547-1.326-1.735-3.456-3.38-6.404-6.399-11.476-21.384-38.35-13.713-49.316 2.285-3.264 8.084-6.62 22.64-4.813zm-17.644-61.787c21.334.471 38.21 8.452 50.158 23.72 9.164 11.711-.927 64.998-30.14 110.969a171.33 171.33 0 0 0-.886-1.117l-.37-.462c7.549-12.467 6.073-24.802 4.759-35.738-.54-4.488-1.05-8.727-.92-12.709.134-4.22.692-7.84 1.232-11.34.663-4.313 1.338-8.776 1.152-14.037.139-.552.195-1.204.122-1.978-.475-5.045-6.235-20.144-17.975-33.81-6.422-7.475-15.787-15.84-28.574-21.482 5.5-1.14 13.021-2.203 21.442-2.016zM66.674 175.778c-5.9 7.094-9.974 5.734-11.314 5.288-8.73-2.912-18.86-21.364-27.791-50.624-7.728-25.318-12.244-50.777-12.602-57.916-1.128-22.578 4.345-38.313 16.268-46.769 19.404-13.76 51.306-5.524 64.125-1.347-.184.182-.376.352-.558.537-21.036 21.244-20.537 57.54-20.485 59.759-.002.856.07 2.068.168 3.735.362 6.105 1.036 17.467-.764 30.334-1.672 11.957 2.014 23.66 10.111 32.109a36.275 36.275 0 0 0 2.617 2.468c-3.604 3.86-11.437 12.396-19.775 22.426zm22.479-29.993c-6.526-6.81-9.49-16.282-8.133-25.99 1.9-13.592 1.199-25.43.822-31.79-.053-.89-.1-1.67-.127-2.285 3.073-2.725 17.314-10.355 27.47-8.028 4.634 1.061 7.458 4.217 8.632 9.645 6.076 28.103.804 39.816-3.432 49.229-.873 1.939-1.698 3.772-2.402 5.668l-.546 1.466c-1.382 3.706-2.668 7.152-3.465 10.424-6.938-.02-13.687-2.984-18.819-8.34zm1.065 37.9c-2.026-.506-3.848-1.385-4.917-2.114.893-.42 2.482-.992 5.238-1.56 13.337-2.745 15.397-4.683 19.895-10.394 1.031-1.31 2.2-2.794 3.819-4.602l.002-.002c2.411-2.7 3.514-2.242 5.514-1.412 1.621.67 3.2 2.702 3.84 4.938.303 1.056.643 3.06-.47 4.62-9.396 13.156-23.088 12.987-32.921 10.526zm69.799 64.952c-16.316 3.496-22.093-4.829-25.9-14.346-2.457-6.144-3.665-33.85-2.808-64.447.011-.407-.047-.8-.159-1.17a15.444 15.444 0 0 0-.456-2.162c-1.274-4.452-4.379-8.176-8.104-9.72-1.48-.613-4.196-1.738-7.46-.903.696-2.868 1.903-6.107 3.212-9.614l.549-1.475c.618-1.663 1.394-3.386 2.214-5.21 4.433-9.848 10.504-23.337 3.915-53.81-2.468-11.414-10.71-16.988-23.204-15.693-7.49.775-14.343 3.797-17.761 5.53-.735.372-1.407.732-2.035 1.082.954-11.5 4.558-32.992 18.04-46.59 8.489-8.56 19.794-12.788 33.568-12.56 27.14.444 44.544 14.372 54.366 25.979 8.464 10.001 13.047 20.076 14.876 25.51-13.755-1.399-23.11 1.316-27.852 8.096-10.317 14.748 5.644 43.372 13.315 57.129 1.407 2.521 2.621 4.7 3.003 5.626 2.498 6.054 5.732 10.096 8.093 13.046.724.904 1.426 1.781 1.96 2.547-4.166 1.201-11.649 3.976-10.967 17.847-.55 6.96-4.461 39.546-6.448 51.059-2.623 15.21-8.22 20.875-23.957 24.25zm68.104-77.936c-4.26 1.977-11.389 3.46-18.161 3.779-7.48.35-11.288-.838-12.184-1.569-.42-8.644 2.797-9.547 6.202-10.503.535-.15 1.057-.297 1.561-.473.313.255.656.508 1.032.756 6.012 3.968 16.735 4.396 31.874 1.271l.166-.033c-2.042 1.909-5.536 4.471-10.49 6.772z" fill="#FFF"/></svg>

java 

<svg xmlns="http://www.w3.org/2000/svg" width="1344" height="2500" viewBox="6.527 4.399 290.829 540.906"><path d="M285.104 430.945h-2.037v-1.14h5.486v1.14h-2.025v5.688h-1.424v-5.688zm10.942.297h-.032l-2.02 5.393h-.924l-2.006-5.393h-.024v5.393h-1.343v-6.828h1.976l1.86 4.835 1.854-4.835h1.969v6.828h-1.311l.001-5.393z" fill="#e76f00"/><path d="M102.681 291.324s-14.178 8.245 10.09 11.035c29.4 3.354 44.426 2.873 76.825-3.259 0 0 8.518 5.341 20.414 9.967-72.63 31.128-164.376-1.803-107.329-17.743M93.806 250.704s-15.902 11.771 8.384 14.283c31.406 3.24 56.208 3.505 99.125-4.759 0 0 5.937 6.018 15.271 9.309-87.815 25.678-185.624 2.025-122.78-18.833" fill="#5382a1"/><path d="M168.625 181.799c17.896 20.604-4.701 39.146-4.701 39.146s45.439-23.458 24.571-52.833c-19.491-27.395-34.438-41.005 46.479-87.934.001-.001-127.013 31.721-66.349 101.621" fill="#e76f00"/><path d="M264.684 321.369s10.492 8.646-11.555 15.333c-41.923 12.7-174.488 16.535-211.314.507-13.238-5.76 11.587-13.752 19.396-15.429 8.144-1.766 12.798-1.437 12.798-1.437-14.722-10.371-95.157 20.363-40.857 29.166 148.084 24.015 269.944-10.814 231.532-28.14M109.499 208.617s-67.431 16.016-23.879 21.832c18.389 2.462 55.047 1.905 89.192-.956 27.906-2.354 55.928-7.358 55.928-7.358s-9.84 4.214-16.959 9.074c-68.475 18.01-200.756 9.631-162.674-8.79 32.206-15.568 58.392-13.802 58.392-13.802M230.462 276.231c69.608-36.171 37.425-70.932 14.96-66.248-5.506 1.146-7.961 2.139-7.961 2.139s2.045-3.202 5.947-4.588c44.441-15.624 78.619 46.081-14.346 70.521 0 0 1.079-.962 1.4-1.824" fill="#5382a1"/><path d="M188.495 4.399s38.55 38.562-36.563 97.862c-60.233 47.567-13.735 74.689-.025 105.678-35.158-31.723-60.96-59.647-43.65-85.637 25.406-38.151 95.792-56.648 80.238-117.903" fill="#e76f00"/><path d="M116.339 374.246c66.815 4.277 169.417-2.373 171.846-33.987 0 0-4.67 11.984-55.219 21.503-57.027 10.731-127.364 9.479-169.081 2.601.002-.002 8.541 7.067 52.454 9.883" fill="#5382a1"/><path d="M105.389 495.049c-6.303 5.467-12.96 8.536-18.934 8.536-8.527 0-13.134-5.113-13.134-13.314 0-8.871 4.937-15.357 24.739-15.357h7.328l.001 20.135m17.392 19.623V453.93c0-15.518-8.85-25.756-30.188-25.756-12.457 0-23.369 3.076-32.238 6.999l2.56 10.752c6.983-2.563 16.022-4.949 24.894-4.949 12.292 0 17.58 4.949 17.58 15.181v7.678h-6.135c-29.865 0-43.337 11.593-43.337 28.993 0 15.018 8.878 23.554 25.594 23.554 10.745 0 18.766-4.437 26.264-10.929l1.361 9.221 13.645-.002zM180.824 514.672h-21.691l-26.106-84.96h18.944l16.198 52.199 3.601 15.699c8.195-22.698 13.992-45.726 16.891-67.898h18.427c-4.938 27.976-13.822 58.684-26.264 84.96M264.038 495.049c-6.315 5.467-12.983 8.536-18.958 8.536-8.512 0-13.131-5.113-13.131-13.314 0-8.871 4.947-15.357 24.748-15.357h7.341v20.135m17.39 19.623V453.93c0-15.518-8.871-25.756-30.186-25.756-12.465 0-23.381 3.076-32.246 6.999l2.557 10.752c6.985-2.563 16.041-4.949 24.906-4.949 12.283 0 17.579 4.949 17.579 15.181v7.678h-6.146c-29.873 0-43.34 11.593-43.34 28.993 0 15.018 8.871 23.554 25.584 23.554 10.752 0 18.77-4.437 26.28-10.929l1.366 9.221 13.646-.002zM36.847 529.099c-4.958 7.239-12.966 12.966-21.733 16.206L6.527 535.2c6.673-3.424 12.396-8.954 15.055-14.104 2.3-4.581 3.252-10.485 3.252-24.604v-96.995h18.478v95.666c-.001 18.875-1.51 26.5-6.465 33.936" fill="#e76f00"/></svg>

pyhton

<svg xmlns="http://www.w3.org/2000/svg" width="2500" height="2490" viewBox="0 0 256 255" preserveAspectRatio="xMinYMin meet"><defs><linearGradient x1="12.959%" y1="12.039%" x2="79.639%" y2="78.201%" id="a"><stop stop-color="#387EB8" offset="0%"/><stop stop-color="#366994" offset="100%"/></linearGradient><linearGradient x1="19.128%" y1="20.579%" x2="90.742%" y2="88.429%" id="b"><stop stop-color="#FFE052" offset="0%"/><stop stop-color="#FFC331" offset="100%"/></linearGradient></defs><path d="M126.916.072c-64.832 0-60.784 28.115-60.784 28.115l.072 29.128h61.868v8.745H41.631S.145 61.355.145 126.77c0 65.417 36.21 63.097 36.21 63.097h21.61v-30.356s-1.165-36.21 35.632-36.21h61.362s34.475.557 34.475-33.319V33.97S194.67.072 126.916.072zM92.802 19.66a11.12 11.12 0 0 1 11.13 11.13 11.12 11.12 0 0 1-11.13 11.13 11.12 11.12 0 0 1-11.13-11.13 11.12 11.12 0 0 1 11.13-11.13z" fill="url(#a)"/><path d="M128.757 254.126c64.832 0 60.784-28.115 60.784-28.115l-.072-29.127H127.6v-8.745h86.441s41.486 4.705 41.486-60.712c0-65.416-36.21-63.096-36.21-63.096h-21.61v30.355s1.165 36.21-35.632 36.21h-61.362s-34.475-.557-34.475 33.32v56.013s-5.235 33.897 62.518 33.897zm34.114-19.586a11.12 11.12 0 0 1-11.13-11.13 11.12 11.12 0 0 1 11.13-11.131 11.12 11.12 0 0 1 11.13 11.13 11.12 11.12 0 0 1-11.13 11.13z" fill="url(#b)"/></svg>

rust

<svg xmlns="http://www.w3.org/2000/svg" width="2500" height="2500" viewBox="0 0 256 256" preserveAspectRatio="xMidYMid"><path d="M254.251 124.862l-10.747-6.653a145.81 145.81 0 0 0-.306-3.13l9.236-8.615a3.686 3.686 0 0 0 1.105-3.427 3.685 3.685 0 0 0-2.33-2.744l-11.807-4.415a137.355 137.355 0 0 0-.925-3.048l7.365-10.229a3.698 3.698 0 0 0-2.407-5.814l-12.45-2.025c-.484-.944-.988-1.874-1.496-2.796l5.231-11.483a3.683 3.683 0 0 0-.288-3.59 3.678 3.678 0 0 0-3.204-1.642l-12.636.44a99.848 99.848 0 0 0-1.996-2.421l2.904-12.308a3.694 3.694 0 0 0-.986-3.466 3.698 3.698 0 0 0-3.464-.986l-12.305 2.901a106.192 106.192 0 0 0-2.426-1.996l.442-12.635a3.684 3.684 0 0 0-1.64-3.205 3.693 3.693 0 0 0-3.59-.29l-11.48 5.234a133.235 133.235 0 0 0-2.796-1.5l-2.03-12.452a3.7 3.7 0 0 0-5.812-2.407l-10.236 7.365c-1.007-.32-2.02-.629-3.042-.922L155.72 4.794a3.69 3.69 0 0 0-2.745-2.336 3.707 3.707 0 0 0-3.424 1.106l-8.615 9.243a111.11 111.11 0 0 0-3.13-.306l-6.653-10.75a3.698 3.698 0 0 0-6.289 0l-6.653 10.75a110.4 110.4 0 0 0-3.133.306l-8.617-9.243a3.695 3.695 0 0 0-6.169 1.23l-4.414 11.809c-1.023.293-2.035.604-3.045.922L82.599 10.16a3.687 3.687 0 0 0-3.579-.415 3.705 3.705 0 0 0-2.235 2.822l-2.03 12.452c-.94.487-1.869.988-2.796 1.5l-11.481-5.235a3.686 3.686 0 0 0-3.588.291 3.684 3.684 0 0 0-1.642 3.205l.44 12.635a118.03 118.03 0 0 0-2.426 1.996l-12.305-2.9a3.71 3.71 0 0 0-3.466.985 3.694 3.694 0 0 0-.986 3.466l2.899 12.308c-.673.797-1.338 1.604-1.991 2.421l-12.636-.44a3.721 3.721 0 0 0-3.204 1.641 3.696 3.696 0 0 0-.291 3.59l5.234 11.484c-.509.922-1.012 1.852-1.5 2.796l-12.449 2.025a3.7 3.7 0 0 0-2.407 5.814l7.365 10.23c-.32 1.01-.631 2.024-.925 3.047l-11.808 4.415a3.702 3.702 0 0 0-1.225 6.171l9.237 8.614c-.115 1.04-.217 2.087-.305 3.131L1.75 124.862A3.695 3.695 0 0 0 0 128.007c0 1.284.663 2.473 1.751 3.143l10.748 6.653c.088 1.047.19 2.092.305 3.131l-9.238 8.617a3.697 3.697 0 0 0 1.226 6.169l11.808 4.415c.294 1.022.605 2.037.925 3.047l-7.365 10.231a3.696 3.696 0 0 0 2.41 5.812l12.447 2.025c.487.944.986 1.874 1.5 2.8l-5.235 11.48a3.691 3.691 0 0 0 .291 3.59 3.684 3.684 0 0 0 3.204 1.641l12.63-.442c.659.821 1.322 1.626 1.997 2.426l-2.899 12.31a3.682 3.682 0 0 0 .986 3.459 3.683 3.683 0 0 0 3.466.983l12.305-2.898c.8.68 1.61 1.34 2.427 1.99l-.44 12.639a3.694 3.694 0 0 0 5.229 3.492l11.481-5.231a105.49 105.49 0 0 0 2.796 1.499l2.03 12.445a3.692 3.692 0 0 0 2.235 2.825 3.706 3.706 0 0 0 3.579-.413l10.229-7.37c1.01.32 2.025.633 3.047.927l4.415 11.804a3.685 3.685 0 0 0 2.744 2.331 3.677 3.677 0 0 0 3.425-1.106l8.617-9.238c1.04.12 2.086.22 3.133.313l6.653 10.748a3.702 3.702 0 0 0 3.143 1.75 3.703 3.703 0 0 0 3.145-1.75l6.653-10.748c1.047-.093 2.092-.193 3.131-.313l8.615 9.238a3.68 3.68 0 0 0 3.424 1.106 3.69 3.69 0 0 0 2.744-2.331l4.415-11.804c1.022-.294 2.038-.607 3.048-.927l10.231 7.37a3.7 3.7 0 0 0 5.812-2.412l2.03-12.445c.939-.487 1.868-.993 2.795-1.5l11.481 5.232a3.692 3.692 0 0 0 5.23-3.492l-.44-12.638a98.76 98.76 0 0 0 2.423-1.991l12.306 2.898c1.25.294 2.56-.07 3.463-.983a3.682 3.682 0 0 0 .986-3.459l-2.898-12.31c.675-.8 1.34-1.605 1.99-2.426l12.636.442a3.681 3.681 0 0 0 3.204-1.64 3.685 3.685 0 0 0 .289-3.592l-5.232-11.478c.511-.927 1.013-1.857 1.497-2.8l12.45-2.026a3.682 3.682 0 0 0 2.822-2.236 3.696 3.696 0 0 0-.415-3.576l-7.365-10.23c.318-1.011.629-2.026.925-3.048l11.806-4.415a3.684 3.684 0 0 0 2.331-2.745 3.677 3.677 0 0 0-1.106-3.424l-9.235-8.617c.112-1.04.215-2.086.305-3.13l10.748-6.654a3.69 3.69 0 0 0 1.751-3.143c0-1.281-.66-2.472-1.749-3.145zm-71.932 89.156c-4.104-.885-6.714-4.93-5.833-9.047.878-4.112 4.92-6.729 9.023-5.844 4.104.879 6.718 4.931 5.838 9.04-.88 4.11-4.926 6.73-9.028 5.851zm-3.652-24.699a6.929 6.929 0 0 0-8.23 5.332l-3.816 17.807c-11.775 5.344-24.85 8.313-38.621 8.313-14.086 0-27.446-3.116-39.43-8.688l-3.814-17.806c-.802-3.747-4.486-6.134-8.228-5.33l-15.72 3.376a93.272 93.272 0 0 1-8.128-9.58h76.49c.865 0 1.442-.157 1.442-.945v-27.057c0-.787-.577-.944-1.443-.944H106.8v-17.15h24.195c2.208 0 11.809.63 14.878 12.902.962 3.774 3.072 16.05 4.516 19.98 1.438 4.408 7.293 13.213 13.533 13.213h38.115c.433 0 .895-.049 1.382-.137a93.92 93.92 0 0 1-8.669 10.17l-16.082-3.456zm-105.79 24.327c-4.105.886-8.146-1.731-9.029-5.843-.878-4.119 1.732-8.162 5.836-9.047 4.105-.878 8.148 1.739 9.028 5.85.878 4.11-1.734 8.16-5.836 9.04zM43.86 95.986c1.703 3.842-.03 8.345-3.867 10.045-3.837 1.705-8.328-.03-10.03-3.875-1.703-3.845.029-8.34 3.867-10.045a7.598 7.598 0 0 1 10.03 3.874zm-8.918 21.14l16.376-7.277a6.942 6.942 0 0 0 3.524-9.158l-3.372-7.626h13.264v59.788H37.973a93.7 93.7 0 0 1-3.566-25.672c0-3.398.183-6.756.535-10.056zm71.862-5.807V93.696h31.586c1.632 0 11.52 1.886 11.52 9.28 0 6.139-7.584 8.34-13.821 8.34h-29.285v.003zm114.792 15.862c0 2.338-.086 4.652-.257 6.948h-9.603c-.961 0-1.348.632-1.348 1.573v4.41c0 10.38-5.853 12.638-10.982 13.213-4.884.55-10.3-2.045-10.967-5.034-2.882-16.206-7.683-19.667-15.265-25.648 9.41-5.975 19.2-14.79 19.2-26.59 0-12.74-8.734-20.765-14.688-24.7-8.352-5.506-17.6-6.61-20.095-6.61H58.279c13.467-15.03 31.719-25.677 52.362-29.551l11.706 12.28a6.923 6.923 0 0 0 9.799.226l13.098-12.528c27.445 5.11 50.682 22.194 64.073 45.633l-8.967 20.253c-1.548 3.505.032 7.604 3.527 9.157l17.264 7.668c.298 3.065.455 6.161.455 9.3zM122.352 24.745c3.033-2.905 7.844-2.79 10.748.247 2.898 3.046 2.788 7.862-.252 10.765-3.033 2.906-7.844 2.793-10.748-.25a7.621 7.621 0 0 1 .252-10.762zm88.983 71.61a7.594 7.594 0 0 1 10.028-3.872c3.838 1.702 5.57 6.203 3.867 10.045a7.595 7.595 0 0 1-10.03 3.875c-3.833-1.703-5.565-6.2-3.865-10.048z"/></svg>





