<svg xmlns="http://www.w3.org/2000/svg" fill="none" height="16" viewBox="0 0 16 16" width="16"><g fill="#212121"><path d="m8.5 7.5c0-.82843.67157-1.5 1.5-1.5h1.5c.2761 0 .5.22386.5.5s-.2239.5-.5.5h-1.5c-.27614 0-.5.22386-.5.5v.5c0 .27614.22386.5.5.5h.5c.8284 0 1.5.67157 1.5 1.5v.5c0 .8284-.6716 1.5-1.5 1.5h-1.5c-.27614 0-.5-.2239-.5-.5s.22386-.5.5-.5h1.5c.2761 0 .5-.2239.5-.5v-.5c0-.27614-.2239-.5-.5-.5h-.5c-.82843 0-1.5-.67157-1.5-1.5z"/><path d="m8 6.5c0-.27614-.22386-.5-.5-.5s-.5.22386-.5.5v4c0 .2761-.22386.5-.5.5h-1c-.27614 0-.5.2239-.5.5s.22386.5.5.5h1c.82843 0 1.5-.6716 1.5-1.5z"/><path d="m2 4.5c0-1.38071 1.11929-2.5 2.5-2.5h7c1.3807 0 2.5 1.11929 2.5 2.5v7c0 1.3807-1.1193 2.5-2.5 2.5h-7c-1.38071 0-2.5-1.1193-2.5-2.5zm2.5-1.5c-.82843 0-1.5.67157-1.5 1.5v7c0 .8284.67157 1.5 1.5 1.5h7c.8284 0 1.5-.6716 1.5-1.5v-7c0-.82843-.6716-1.5-1.5-1.5z"/></g></svg>