<svg xmlns="http://www.w3.org/2000/svg" height="2500" viewBox="175.7 78 490.6 436.9" width="2194"><g fill="#61dafb"><path d="m666.3 296.5c0-32.5-40.7-63.3-103.1-82.4 14.4-63.6 8-114.2-20.2-130.4-6.5-3.8-14.1-5.6-22.4-5.6v22.3c4.6 0 8.3.9 11.4 2.6 13.6 7.8 19.5 37.5 14.9 75.7-1.1 9.4-2.9 19.3-5.1 29.4-19.6-4.8-41-8.5-63.5-10.9-13.5-18.5-27.5-35.3-41.6-50 32.6-30.3 63.2-46.9 84-46.9v-22.3c-27.5 0-63.5 19.6-99.9 53.6-36.4-33.8-72.4-53.2-99.9-53.2v22.3c20.7 0 51.4 16.5 84 46.6-14 14.7-28 31.4-41.3 49.9-22.6 2.4-44 6.1-63.6 11-2.3-10-4-19.7-5.2-29-4.7-38.2 1.1-67.9 14.6-75.8 3-1.8 6.9-2.6 11.5-2.6v-22.3c-8.4 0-16 1.8-22.6 5.6-28.1 16.2-34.4 66.7-19.9 130.1-62.2 19.2-102.7 49.9-102.7 82.3 0 32.5 40.7 63.3 103.1 82.4-14.4 63.6-8 114.2 20.2 130.4 6.5 3.8 14.1 5.6 22.5 5.6 27.5 0 63.5-19.6 99.9-53.6 36.4 33.8 72.4 53.2 99.9 53.2 8.4 0 16-1.8 22.6-5.6 28.1-16.2 34.4-66.7 19.9-130.1 62-19.1 102.5-49.9 102.5-82.3zm-130.2-66.7c-3.7 12.9-8.3 26.2-13.5 39.5-4.1-8-8.4-16-13.1-24-4.6-8-9.5-15.8-14.4-23.4 14.2 2.1 27.9 4.7 41 7.9zm-45.8 106.5c-7.8 13.5-15.8 26.3-24.1 38.2-14.9 1.3-30 2-45.2 2-15.1 0-30.2-.7-45-1.9-8.3-11.9-16.4-24.6-24.2-38-7.6-13.1-14.5-26.4-20.8-39.8 6.2-13.4 13.2-26.8 20.7-39.9 7.8-13.5 15.8-26.3 24.1-38.2 14.9-1.3 30-2 45.2-2 15.1 0 30.2.7 45 1.9 8.3 11.9 16.4 24.6 24.2 38 7.6 13.1 14.5 26.4 20.8 39.8-6.3 13.4-13.2 26.8-20.7 39.9zm32.3-13c5.4 13.4 10 26.8 13.8 39.8-13.1 3.2-26.9 5.9-41.2 8 4.9-7.7 9.8-15.6 14.4-23.7 4.6-8 8.9-16.1 13-24.1zm-101.4 106.7c-9.3-9.6-18.6-20.3-27.8-32 9 .4 18.2.7 27.5.7 9.4 0 18.7-.2 27.8-.7-9 11.7-18.3 22.4-27.5 32zm-74.4-58.9c-14.2-2.1-27.9-4.7-41-7.9 3.7-12.9 8.3-26.2 13.5-39.5 4.1 8 8.4 16 13.1 24s9.5 15.8 14.4 23.4zm73.9-208.1c9.3 9.6 18.6 20.3 27.8 32-9-.4-18.2-.7-27.5-.7-9.4 0-18.7.2-27.8.7 9-11.7 18.3-22.4 27.5-32zm-74 58.9c-4.9 7.7-9.8 15.6-14.4 23.7-4.6 8-8.9 16-13 24-5.4-13.4-10-26.8-13.8-39.8 13.1-3.1 26.9-5.8 41.2-7.9zm-90.5 125.2c-35.4-15.1-58.3-34.9-58.3-50.6s22.9-35.6 58.3-50.6c8.6-3.7 18-7 27.7-10.1 5.7 19.6 13.2 40 22.5 60.9-9.2 20.8-16.6 41.1-22.2 60.6-9.9-3.1-19.3-6.5-28-10.2zm53.8 142.9c-13.6-7.8-19.5-37.5-14.9-75.7 1.1-9.4 2.9-19.3 5.1-29.4 19.6 4.8 41 8.5 63.5 10.9 13.5 18.5 27.5 35.3 41.6 50-32.6 30.3-63.2 46.9-84 46.9-4.5-.1-8.3-1-11.3-2.7zm237.2-76.2c4.7 38.2-1.1 67.9-14.6 75.8-3 1.8-6.9 2.6-11.5 2.6-20.7 0-51.4-16.5-84-46.6 14-14.7 28-31.4 41.3-49.9 22.6-2.4 44-6.1 63.6-11 2.3 10.1 4.1 19.8 5.2 29.1zm38.5-66.7c-8.6 3.7-18 7-27.7 10.1-5.7-19.6-13.2-40-22.5-60.9 9.2-20.8 16.6-41.1 22.2-60.6 9.9 3.1 19.3 6.5 28.1 10.2 35.4 15.1 58.3 34.9 58.3 50.6-.1 15.7-23 35.6-58.4 50.6z"/><circle cx="420.9" cy="296.5" r="45.7"/></g></svg>

react2

<?xml version="1.0" encoding="utf-8"?><svg version="1.1" id="Layer_1" xmlns="http://www.w3.org/2000/svg" xmlns:xlink="http://www.w3.org/1999/xlink" x="0px" y="0px" viewBox="0 0 122.88 109.43" style="enable-background:new 0 0 122.88 109.43" xml:space="preserve"><style type="text/css">.st0{fill-rule:evenodd;clip-rule:evenodd;fill:#00D8FF;}</style><g><path class="st0" d="M122.88,54.73c0-8.14-10.19-15.85-25.82-20.64c3.61-15.93,2-28.6-5.06-32.66c-1.63-0.95-3.53-1.4-5.61-1.4 v5.59c1.15,0,2.08,0.23,2.86,0.65c3.41,1.95,4.88,9.39,3.73,18.96c-0.28,2.35-0.73,4.83-1.28,7.36c-4.91-1.2-10.27-2.13-15.9-2.73 c-3.38-4.63-6.89-8.84-10.42-12.52C73.54,9.74,81.2,5.59,86.41,5.59V0l0,0c-6.89,0-15.9,4.91-25.02,13.43 C52.27,4.96,43.26,0.1,36.37,0.1v5.59c5.18,0,12.87,4.13,21.04,11.67c-3.51,3.68-7.01,7.86-10.34,12.5 c-5.66,0.6-11.02,1.53-15.93,2.75c-0.58-2.5-1-4.93-1.3-7.26c-1.18-9.57,0.28-17.01,3.66-18.99c0.75-0.45,1.73-0.65,2.88-0.65V0.13 l0,0c-2.1,0-4.01,0.45-5.66,1.4c-7.04,4.06-8.62,16.71-4.98,32.59C10.14,38.92,0,46.61,0,54.73c0,8.14,10.19,15.85,25.82,20.64 c-3.61,15.93-2,28.6,5.06,32.66c1.63,0.95,3.53,1.4,5.64,1.4c6.89,0,15.9-4.91,25.02-13.43c9.12,8.47,18.13,13.33,25.02,13.33 c2.1,0,4.01-0.45,5.66-1.4c7.04-4.06,8.62-16.71,4.98-32.59C112.74,70.56,122.88,62.84,122.88,54.73L122.88,54.73z M72.86,54.73 c0-6.32-5.12-11.45-11.45-11.45c-6.32,0-11.45,5.12-11.45,11.45s5.12,11.45,11.45,11.45C67.74,66.17,72.86,61.05,72.86,54.73 L72.86,54.73z M36.34,0.1L36.34,0.1L36.34,0.1L36.34,0.1z M90.27,38.02c-0.93,3.23-2.08,6.56-3.38,9.89c-1.03-2-2.1-4.01-3.28-6.01 c-1.15-2-2.38-3.96-3.61-5.86C83.56,36.57,86.99,37.22,90.27,38.02L90.27,38.02z M78.8,64.7c-1.95,3.38-3.96,6.59-6.04,9.57 c-3.73,0.33-7.51,0.5-11.32,0.5c-3.78,0-7.56-0.18-11.27-0.48c-2.08-2.98-4.11-6.16-6.06-9.52c-1.9-3.28-3.63-6.61-5.21-9.97 c1.55-3.36,3.31-6.71,5.18-9.99c1.95-3.38,3.96-6.59,6.04-9.57c3.73-0.33,7.51-0.5,11.32-0.5c3.78,0,7.56,0.18,11.27,0.48 c2.08,2.98,4.11,6.16,6.06,9.52c1.9,3.28,3.63,6.61,5.21,9.97C82.4,58.06,80.68,61.41,78.8,64.7L78.8,64.7z M86.89,61.44 c1.35,3.36,2.5,6.71,3.46,9.97c-3.28,0.8-6.74,1.48-10.32,2c1.23-1.93,2.45-3.91,3.61-5.94C84.78,65.47,85.86,63.44,86.89,61.44 L86.89,61.44z M61.49,88.16c-2.33-2.4-4.66-5.08-6.96-8.01c2.25,0.1,4.56,0.18,6.89,0.18c2.35,0,4.68-0.05,6.96-0.18 C66.12,83.08,63.79,85.76,61.49,88.16L61.49,88.16z M42.86,73.41c-3.56-0.53-6.99-1.18-10.27-1.98c0.93-3.23,2.08-6.56,3.38-9.89 c1.03,2,2.1,4.01,3.28,6.01C40.43,69.56,41.63,71.51,42.86,73.41L42.86,73.41z M61.36,21.29c2.33,2.4,4.66,5.08,6.96,8.01 c-2.25-0.1-4.56-0.18-6.89-0.18c-2.35,0-4.68,0.05-6.96,0.18C56.73,26.37,59.06,23.69,61.36,21.29L61.36,21.29z M42.83,36.04 c-1.23,1.93-2.45,3.91-3.61,5.94c-1.15,2-2.23,4.01-3.26,6.01c-1.35-3.36-2.5-6.71-3.46-9.97C35.79,37.24,39.25,36.57,42.83,36.04 L42.83,36.04z M20.16,67.4c-8.87-3.78-14.6-8.74-14.6-12.67c0-3.93,5.74-8.92,14.6-12.67c2.15-0.93,4.51-1.75,6.94-2.53 c1.43,4.91,3.31,10.02,5.64,15.25c-2.3,5.21-4.16,10.29-5.56,15.18C24.7,69.18,22.34,68.33,20.16,67.4L20.16,67.4z M33.64,103.19 c-3.41-1.95-4.88-9.39-3.73-18.96c0.28-2.35,0.73-4.83,1.28-7.36c4.91,1.2,10.27,2.13,15.9,2.73c3.38,4.63,6.89,8.84,10.42,12.52 c-8.17,7.59-15.83,11.75-21.04,11.75C35.34,103.84,34.39,103.62,33.64,103.19L33.64,103.19z M93.05,84.11 c1.18,9.57-0.28,17.01-3.66,18.99c-0.75,0.45-1.73,0.65-2.88,0.65c-5.18,0-12.87-4.13-21.04-11.67c3.51-3.68,7.01-7.86,10.34-12.5 c5.66-0.6,11.02-1.53,15.93-2.76C92.32,79.35,92.77,81.78,93.05,84.11L93.05,84.11z M102.69,67.4c-2.15,0.93-4.51,1.75-6.94,2.53 c-1.43-4.91-3.31-10.02-5.64-15.25c2.3-5.21,4.16-10.29,5.56-15.18c2.48,0.78,4.83,1.63,7.04,2.55c8.87,3.78,14.6,8.74,14.6,12.67 C117.29,58.66,111.56,63.64,102.69,67.4L102.69,67.4z"/></g></svg>

react 3

<svg xmlns="http://www.w3.org/2000/svg" x="0px" y="0px" width="100" height="100" viewBox="0 0 30 30">
    <path d="M 10.679688 4.1816406 C 10.068687 4.1816406 9.502 4.3184219 9 4.6074219 C 7.4311297 5.5132122 6.8339651 7.7205462 7.1503906 10.46875 C 4.6127006 11.568833 3 13.188667 3 15 C 3 16.811333 4.6127006 18.431167 7.1503906 19.53125 C 6.8341285 22.279346 7.4311297 24.486788 9 25.392578 C 9.501 25.681578 10.067687 25.818359 10.679688 25.818359 C 11.982314 25.818359 13.48785 25.164589 15 24.042969 C 16.512282 25.164589 18.01964 25.818359 19.322266 25.818359 C 19.933266 25.818359 20.499953 25.681578 21.001953 25.392578 C 22.570814 24.486793 23.167976 22.279432 22.851562 19.53125 C 25.388297 18.431178 27 16.81094 27 15 C 27 13.188667 25.387299 11.568833 22.849609 10.46875 C 23.165872 7.7206538 22.56887 5.5132122 21 4.6074219 C 20.499 4.3174219 19.932312 4.1816406 19.320312 4.1816406 C 18.017686 4.1816406 16.51215 4.8354109 15 5.9570312 C 13.487763 4.8354109 11.981863 4.1816406 10.679688 4.1816406 z M 10.679688 5.9316406 C 11.461321 5.9316406 12.49496 6.3472486 13.617188 7.1171875 C 12.95737 7.7398717 12.311153 8.4479321 11.689453 9.2363281 C 10.681079 9.3809166 9.7303472 9.5916908 8.8496094 9.8554688 C 8.8448793 9.7943902 8.8336776 9.7303008 8.8300781 9.6699219 C 8.7230781 7.8899219 9.114 6.5630469 9.875 6.1230469 C 10.1 5.9930469 10.362688 5.9316406 10.679688 5.9316406 z M 19.320312 5.9316406 C 19.636312 5.9316406 19.9 5.9930469 20.125 6.1230469 C 20.886 6.5620469 21.276922 7.8899219 21.169922 9.6699219 C 21.166295 9.7303008 21.155145 9.7943902 21.150391 9.8554688 C 20.2691 9.5915252 19.317669 9.3809265 18.308594 9.2363281 C 17.686902 8.4480417 17.042616 7.7397993 16.382812 7.1171875 C 17.504962 6.3473772 18.539083 5.9316406 19.320312 5.9316406 z M 15 8.2285156 C 15.27108 8.4752506 15.540266 8.7360345 15.8125 9.0214844 C 15.542718 9.012422 15.274373 9 15 9 C 14.726286 9 14.458598 9.0124652 14.189453 9.0214844 C 14.461446 8.7363308 14.729174 8.4750167 15 8.2285156 z M 15 10.75 C 15.828688 10.75 16.614128 10.796321 17.359375 10.876953 C 17.813861 11.494697 18.261774 12.147811 18.681641 12.875 C 19.084074 13.572033 19.439938 14.285488 19.753906 15 C 19.439896 15.714942 19.084316 16.429502 18.681641 17.126953 C 18.263078 17.852044 17.816279 18.500949 17.363281 19.117188 C 16.591711 19.201607 15.800219 19.25 15 19.25 C 14.171312 19.25 13.385872 19.203679 12.640625 19.123047 C 12.186139 18.505303 11.738226 17.854142 11.318359 17.126953 C 10.915684 16.429502 10.560194 15.714942 10.246094 15 C 10.559972 14.285488 10.915926 13.572033 11.318359 12.875 C 11.737083 12.149909 12.183612 11.499051 12.636719 10.882812 C 13.408289 10.798393 14.199781 10.75 15 10.75 z M 19.746094 11.291016 C 20.142841 11.386804 20.524253 11.490209 20.882812 11.605469 C 20.801579 11.97252 20.702235 12.346608 20.589844 12.724609 C 20.461164 12.483141 20.336375 12.240903 20.197266 12 C 20.054139 11.752196 19.895244 11.529558 19.746094 11.291016 z M 10.251953 11.292969 C 10.103305 11.530776 9.9454023 11.752991 9.8027344 12 C 9.6636666 12.240944 9.5387971 12.483106 9.4101562 12.724609 C 9.29751 12.345829 9.1965499 11.971295 9.1152344 11.603516 C 9.4803698 11.48815 9.86083 11.385986 10.251953 11.292969 z M 7.46875 12.246094 C 7.6794464 13.135714 7.9717297 14.057918 8.3476562 14.998047 C 7.9725263 15.935943 7.6814729 16.856453 7.4707031 17.744141 C 5.7292327 16.903203 4.75 15.856373 4.75 15 C 4.75 14.121 5.701875 13.119266 7.296875 12.322266 C 7.3513169 12.295031 7.4131225 12.272692 7.46875 12.246094 z M 22.529297 12.255859 C 24.270767 13.096797 25.25 14.143627 25.25 15 C 25.25 15.879 24.298125 16.880734 22.703125 17.677734 C 22.648683 17.704969 22.586877 17.727308 22.53125 17.753906 C 22.32043 16.863764 22.030541 15.940699 21.654297 15 C 22.028977 14.062913 22.318703 13.142804 22.529297 12.255859 z M 15 13 C 13.895 13 13 13.895 13 15 C 13 16.105 13.895 17 15 17 C 16.105 17 17 16.105 17 15 C 17 13.895 16.105 13 15 13 z M 9.4101562 17.275391 C 9.5388794 17.516948 9.6655262 17.759008 9.8046875 18 C 9.9476585 18.247625 10.104915 18.470608 10.253906 18.708984 C 9.857159 18.613196 9.4757466 18.509791 9.1171875 18.394531 C 9.1984813 18.02725 9.2976676 17.653633 9.4101562 17.275391 z M 20.589844 17.277344 C 20.702364 17.655759 20.803517 18.02905 20.884766 18.396484 C 20.51963 18.51185 20.13917 18.614014 19.748047 18.707031 C 19.896695 18.469224 20.054598 18.247009 20.197266 18 C 20.336044 17.759557 20.461449 17.518344 20.589844 17.277344 z M 8.8496094 20.144531 C 9.7309004 20.408475 10.682331 20.619073 11.691406 20.763672 C 12.313288 21.552345 12.957085 22.261935 13.617188 22.884766 C 12.495042 23.654481 11.461272 24.070312 10.679688 24.070312 C 10.363687 24.070312 10.1 24.006953 9.875 23.876953 C 9.114 23.437953 8.7230781 22.112031 8.8300781 20.332031 C 8.8337424 20.271023 8.8447938 20.206253 8.8496094 20.144531 z M 21.150391 20.144531 C 21.155182 20.206253 21.166285 20.271023 21.169922 20.332031 C 21.276922 22.112031 20.886 23.436953 20.125 23.876953 C 19.9 24.006953 19.637312 24.070313 19.320312 24.070312 C 18.538728 24.070312 17.504958 23.654609 16.382812 22.884766 C 17.042964 22.261863 17.688542 21.552454 18.310547 20.763672 C 19.318921 20.619083 20.269653 20.408309 21.150391 20.144531 z M 14.1875 20.978516 C 14.457282 20.987578 14.725627 21 15 21 C 15.274373 21 15.542718 20.987578 15.8125 20.978516 C 15.540266 21.263964 15.27108 21.524765 15 21.771484 C 14.72892 21.524749 14.459734 21.263966 14.1875 20.978516 z"></path>
</svg>